<?xml version="1.0" standalone="no"?>
<!DOCTYPE svg PUBLIC "-//W3C//DTD SVG 20010904//EN"
 "http://www.w3.org/TR/2001/REC-SVG-20010904/DTD/svg10.dtd">
<svg version="1.0" xmlns="http://www.w3.org/2000/svg"
 width="72.000000pt" height="72.000000pt" viewBox="0 0 72.000000 72.000000"
 preserveAspectRatio="xMidYMid meet">

<g transform="translate(0.000000,72.000000) scale(0.100000,-0.100000)"
fill="#000000" stroke="none">
<path d="M297 700 c-106 -18 -208 -94 -260 -194 -29 -56 -32 -69 -32 -156 0
-77 4 -104 22 -142 31 -67 105 -143 176 -178 54 -27 70 -30 151 -30 109 0 168
23 246 96 157 147 143 396 -30 533 -73 58 -181 86 -273 71z m214 -72 c70 -38
129 -104 148 -168 6 -20 11 -75 11 -122 0 -70 -4 -93 -26 -135 -31 -63 -89
-117 -161 -150 -49 -22 -65 -25 -141 -21 -99 5 -139 20 -206 79 -50 44 -91
120 -105 191 -18 99 38 234 125 301 67 51 122 67 215 64 65 -3 86 -9 140 -39z"/>
<path d="M287 546 c-46 -17 -64 -32 -83 -67 -21 -42 -18 -49 29 -49 38 0 44 3
54 30 11 28 14 30 66 30 51 0 55 -2 67 -29 15 -38 3 -61 -55 -101 -26 -18 -45
-39 -45 -50 0 -10 -3 -25 -6 -34 -5 -13 2 -16 40 -16 39 0 46 3 46 20 0 11 10
28 22 38 72 56 98 90 98 127 0 47 -41 88 -104 104 -57 14 -82 13 -129 -3z"/>
<path d="M310 180 l0 -40 45 0 45 0 0 40 0 40 -45 0 -45 0 0 -40z"/>
</g>
</svg>
