<?xml version="1.0" standalone="no"?>
<!DOCTYPE svg PUBLIC "-//W3C//DTD SVG 20010904//EN"
 "http://www.w3.org/TR/2001/REC-SVG-20010904/DTD/svg10.dtd">
<svg version="1.0" xmlns="http://www.w3.org/2000/svg"
 width="40.000000pt" height="40.000000pt" viewBox="0 0 40.000000 40.000000"
 preserveAspectRatio="xMidYMid meet">

<g transform="translate(0.000000,40.000000) scale(0.100000,-0.100000)"
fill="#000000" stroke="none">
<path d="M51 302 l52 -99 -52 -102 -53 -102 27 3 c23 3 35 18 79 100 l51 97
-50 98 c-44 86 -53 98 -78 101 l-29 4 53 -100z"/>
<path d="M169 301 l51 -100 -48 -93 c-26 -51 -49 -97 -51 -101 -2 -5 9 -7 24
-5 23 3 34 17 77 101 l51 99 -51 96 c-42 82 -54 98 -76 100 l-27 3 50 -100z"/>
<path d="M240 396 c0 -2 23 -46 51 -99 l50 -96 -50 -94 c-28 -52 -51 -97 -51
-100 0 -4 11 -7 25 -7 20 0 30 13 66 85 23 47 48 85 56 85 15 0 17 21 4 36 -5
5 -30 51 -56 102 -40 77 -52 92 -71 92 -13 0 -24 -2 -24 -4z"/>
</g>
</svg>
