<?xml version="1.0" standalone="no"?>
<!DOCTYPE svg PUBLIC "-//W3C//DTD SVG 20010904//EN"
 "http://www.w3.org/TR/2001/REC-SVG-20010904/DTD/svg10.dtd">
<svg version="1.0" xmlns="http://www.w3.org/2000/svg"
 width="192.000000pt" height="171.000000pt" viewBox="0 0 192.000000 171.000000"
 preserveAspectRatio="xMidYMid meet">

<g transform="translate(0.000000,171.000000) scale(0.100000,-0.100000)"
fill="#000000" stroke="none">
<path d="M820 1684 c-316 -56 -548 -259 -633 -554 -47 -165 -44 -288 13 -457
39 -118 83 -186 185 -289 143 -144 296 -211 501 -221 401 -20 733 257 794 663
21 140 -5 287 -79 439 -96 197 -272 341 -486 399 -59 16 -246 29 -295 20z
m235 -256 c83 -18 179 -74 243 -142 97 -104 142 -218 142 -361 0 -228 -123
-408 -337 -492 -59 -23 -83 -27 -178 -27 -90 -1 -122 3 -175 22 -212 76 -337
247 -348 474 -5 115 15 197 73 293 45 75 66 97 138 151 123 92 272 119 442 82z"/>
<path d="M920 1091 l0 -171 -171 0 -171 0 7 -42 c16 -104 89 -203 187 -255 47
-25 64 -28 148 -28 89 0 99 2 158 34 118 64 177 163 176 296 -1 98 -23 153
-90 225 -52 55 -125 95 -196 105 l-48 7 0 -171z"/>
<path d="M1731 598 c-20 -66 -76 -167 -130 -234 -80 -98 -175 -162 -361 -242
-18 -8 45 -10 245 -9 l270 2 3 263 c1 144 -2 262 -6 262 -5 0 -14 -19 -21 -42z"/>
</g>
</svg>
